<mxfile host="app.diagrams.net" agent="Mozilla/5.0 (Windows NT 10.0; Win64; x64) AppleWebKit/537.36 (KHTML, like Gecko) Chrome/131.0.0.0 Safari/537.36" version="25.0.3">
  <diagram name="Страница — 1" id="nMzWdmocSR1ZHAoDMsLs">
    <mxGraphModel dx="466" dy="744" grid="1" gridSize="10" guides="1" tooltips="1" connect="1" arrows="1" fold="1" page="1" pageScale="1" pageWidth="827" pageHeight="1169" math="0" shadow="0">
      <root>
        <mxCell id="0" />
        <mxCell id="1" parent="0" />
        <mxCell id="AwWvylvPB_aR43ItV0v9-1" value="начало" style="ellipse;whiteSpace=wrap;html=1;" vertex="1" parent="1">
          <mxGeometry x="350" y="50" width="120" height="80" as="geometry" />
        </mxCell>
        <mxCell id="AwWvylvPB_aR43ItV0v9-2" value="" style="endArrow=none;dashed=1;html=1;dashPattern=1 3;strokeWidth=2;rounded=0;" edge="1" parent="1">
          <mxGeometry width="50" height="50" relative="1" as="geometry">
            <mxPoint x="470" y="100" as="sourcePoint" />
            <mxPoint x="600" y="100" as="targetPoint" />
          </mxGeometry>
        </mxCell>
        <mxCell id="AwWvylvPB_aR43ItV0v9-3" value="#include &amp;lt;iostream&amp;gt;&lt;div&gt;#include &amp;lt;cmath&amp;gt;&lt;/div&gt;&lt;div&gt;#include &amp;lt;clocale&amp;gt;&lt;/div&gt;&lt;div&gt;#include &amp;lt;iomanip&amp;gt;&lt;/div&gt;&lt;div&gt;using namespase std;&lt;/div&gt;" style="rounded=0;whiteSpace=wrap;html=1;align=left;" vertex="1" parent="1">
          <mxGeometry x="600" y="40" width="120" height="100" as="geometry" />
        </mxCell>
        <mxCell id="AwWvylvPB_aR43ItV0v9-4" value="int main()" style="shape=process;whiteSpace=wrap;html=1;backgroundOutline=1;" vertex="1" parent="1">
          <mxGeometry x="350" y="160" width="120" height="60" as="geometry" />
        </mxCell>
        <mxCell id="AwWvylvPB_aR43ItV0v9-5" value="" style="endArrow=classic;html=1;rounded=0;exitX=0.5;exitY=1;exitDx=0;exitDy=0;entryX=0.5;entryY=0;entryDx=0;entryDy=0;" edge="1" parent="1" source="AwWvylvPB_aR43ItV0v9-1" target="AwWvylvPB_aR43ItV0v9-4">
          <mxGeometry width="50" height="50" relative="1" as="geometry">
            <mxPoint x="410" y="290" as="sourcePoint" />
            <mxPoint x="460" y="240" as="targetPoint" />
          </mxGeometry>
        </mxCell>
        <mxCell id="AwWvylvPB_aR43ItV0v9-6" value="{" style="text;html=1;align=center;verticalAlign=middle;resizable=0;points=[];autosize=1;strokeColor=none;fillColor=none;" vertex="1" parent="1">
          <mxGeometry x="370" y="130" width="30" height="30" as="geometry" />
        </mxCell>
        <mxCell id="AwWvylvPB_aR43ItV0v9-7" value="setlocale(LC_ALL, &quot;ru&quot;);" style="rounded=0;whiteSpace=wrap;html=1;" vertex="1" parent="1">
          <mxGeometry x="345" y="250" width="130" height="60" as="geometry" />
        </mxCell>
        <mxCell id="AwWvylvPB_aR43ItV0v9-8" value="" style="endArrow=classic;html=1;rounded=0;exitX=0.5;exitY=1;exitDx=0;exitDy=0;entryX=0.5;entryY=0;entryDx=0;entryDy=0;" edge="1" parent="1" source="AwWvylvPB_aR43ItV0v9-4" target="AwWvylvPB_aR43ItV0v9-7">
          <mxGeometry width="50" height="50" relative="1" as="geometry">
            <mxPoint x="410" y="290" as="sourcePoint" />
            <mxPoint x="410" y="260" as="targetPoint" />
          </mxGeometry>
        </mxCell>
        <mxCell id="AwWvylvPB_aR43ItV0v9-9" value="float xprev=0, x =3, eps = 0,0001;" style="rounded=0;whiteSpace=wrap;html=1;" vertex="1" parent="1">
          <mxGeometry x="290" y="340" width="260" height="60" as="geometry" />
        </mxCell>
        <mxCell id="AwWvylvPB_aR43ItV0v9-11" value="int k=0;" style="whiteSpace=wrap;html=1;" vertex="1" parent="1">
          <mxGeometry x="350" y="430" width="120" height="30" as="geometry" />
        </mxCell>
        <mxCell id="AwWvylvPB_aR43ItV0v9-12" value="" style="endArrow=classic;html=1;rounded=0;entryX=0.465;entryY=0.017;entryDx=0;entryDy=0;entryPerimeter=0;exitX=0.5;exitY=1;exitDx=0;exitDy=0;" edge="1" parent="1" source="AwWvylvPB_aR43ItV0v9-7" target="AwWvylvPB_aR43ItV0v9-9">
          <mxGeometry width="50" height="50" relative="1" as="geometry">
            <mxPoint x="530" y="305" as="sourcePoint" />
            <mxPoint x="580" y="255" as="targetPoint" />
          </mxGeometry>
        </mxCell>
        <mxCell id="AwWvylvPB_aR43ItV0v9-13" value="" style="endArrow=classic;html=1;rounded=0;entryX=0.5;entryY=0;entryDx=0;entryDy=0;" edge="1" parent="1" target="AwWvylvPB_aR43ItV0v9-11">
          <mxGeometry width="50" height="50" relative="1" as="geometry">
            <mxPoint x="410" y="400" as="sourcePoint" />
            <mxPoint x="460" y="240" as="targetPoint" />
          </mxGeometry>
        </mxCell>
        <mxCell id="AwWvylvPB_aR43ItV0v9-14" value="while abc(x-xprev)&amp;gt;eps" style="rhombus;whiteSpace=wrap;html=1;" vertex="1" parent="1">
          <mxGeometry x="305" y="490" width="210" height="80" as="geometry" />
        </mxCell>
        <mxCell id="AwWvylvPB_aR43ItV0v9-15" value="" style="endArrow=classic;html=1;rounded=0;entryX=0.5;entryY=0;entryDx=0;entryDy=0;exitX=0.5;exitY=1;exitDx=0;exitDy=0;" edge="1" parent="1" source="AwWvylvPB_aR43ItV0v9-11" target="AwWvylvPB_aR43ItV0v9-14">
          <mxGeometry width="50" height="50" relative="1" as="geometry">
            <mxPoint x="410" y="630" as="sourcePoint" />
            <mxPoint x="460" y="580" as="targetPoint" />
          </mxGeometry>
        </mxCell>
        <mxCell id="AwWvylvPB_aR43ItV0v9-16" value="{" style="text;html=1;align=center;verticalAlign=middle;resizable=0;points=[];autosize=1;strokeColor=none;fillColor=none;" vertex="1" parent="1">
          <mxGeometry x="380" y="460" width="30" height="30" as="geometry" />
        </mxCell>
        <mxCell id="AwWvylvPB_aR43ItV0v9-17" value="xprev=x;" style="whiteSpace=wrap;html=1;" vertex="1" parent="1">
          <mxGeometry x="360" y="600" width="100" height="30" as="geometry" />
        </mxCell>
        <mxCell id="AwWvylvPB_aR43ItV0v9-18" value="" style="endArrow=classic;html=1;rounded=0;entryX=0.5;entryY=0;entryDx=0;entryDy=0;exitX=0.5;exitY=1;exitDx=0;exitDy=0;" edge="1" parent="1" source="AwWvylvPB_aR43ItV0v9-14" target="AwWvylvPB_aR43ItV0v9-17">
          <mxGeometry width="50" height="50" relative="1" as="geometry">
            <mxPoint x="410" y="630" as="sourcePoint" />
            <mxPoint x="460" y="580" as="targetPoint" />
          </mxGeometry>
        </mxCell>
        <mxCell id="AwWvylvPB_aR43ItV0v9-19" value="да" style="text;html=1;align=center;verticalAlign=middle;resizable=0;points=[];autosize=1;strokeColor=none;fillColor=none;" vertex="1" parent="1">
          <mxGeometry x="410" y="570" width="40" height="30" as="geometry" />
        </mxCell>
        <mxCell id="AwWvylvPB_aR43ItV0v9-21" value="k++;" style="whiteSpace=wrap;html=1;" vertex="1" parent="1">
          <mxGeometry x="360" y="660" width="100" height="30" as="geometry" />
        </mxCell>
        <mxCell id="AwWvylvPB_aR43ItV0v9-22" value="" style="endArrow=classic;html=1;rounded=0;entryX=0.5;entryY=0;entryDx=0;entryDy=0;" edge="1" parent="1" target="AwWvylvPB_aR43ItV0v9-21">
          <mxGeometry width="50" height="50" relative="1" as="geometry">
            <mxPoint x="410" y="630" as="sourcePoint" />
            <mxPoint x="460" y="580" as="targetPoint" />
          </mxGeometry>
        </mxCell>
        <mxCell id="AwWvylvPB_aR43ItV0v9-24" value="x=xprev - -(( 3*sin(sqrt(x)) + 0.35*x - 3.8) / (((3* cos(sqtr(x))) / (2* sqrt(x)))+0.35));" style="whiteSpace=wrap;html=1;" vertex="1" parent="1">
          <mxGeometry x="185" y="720" width="450" height="40" as="geometry" />
        </mxCell>
        <mxCell id="AwWvylvPB_aR43ItV0v9-25" value="" style="endArrow=classic;html=1;rounded=0;entryX=0.5;entryY=0;entryDx=0;entryDy=0;exitX=0.5;exitY=1;exitDx=0;exitDy=0;" edge="1" parent="1" source="AwWvylvPB_aR43ItV0v9-21" target="AwWvylvPB_aR43ItV0v9-24">
          <mxGeometry width="50" height="50" relative="1" as="geometry">
            <mxPoint x="360" y="630" as="sourcePoint" />
            <mxPoint x="410" y="580" as="targetPoint" />
          </mxGeometry>
        </mxCell>
        <mxCell id="AwWvylvPB_aR43ItV0v9-26" value="}" style="text;html=1;align=center;verticalAlign=middle;resizable=0;points=[];autosize=1;strokeColor=none;fillColor=none;" vertex="1" parent="1">
          <mxGeometry x="415" y="690" width="30" height="30" as="geometry" />
        </mxCell>
        <mxCell id="AwWvylvPB_aR43ItV0v9-27" value="cout &amp;lt;&amp;lt; &quot;Приближенное значение корня:&quot; setprecision(10)&amp;lt;&amp;lt;xpev&amp;lt;&amp;lt;endl;" style="shape=parallelogram;perimeter=parallelogramPerimeter;whiteSpace=wrap;html=1;fixedSize=1;" vertex="1" parent="1">
          <mxGeometry x="195" y="800" width="430" height="30" as="geometry" />
        </mxCell>
        <mxCell id="AwWvylvPB_aR43ItV0v9-28" value="cout &amp;lt;&amp;lt; &quot;Колличество итераций:&quot; &amp;lt;&amp;lt;k&amp;lt;&amp;lt;endl:" style="shape=parallelogram;perimeter=parallelogramPerimeter;whiteSpace=wrap;html=1;fixedSize=1;" vertex="1" parent="1">
          <mxGeometry x="260" y="850" width="300" height="30" as="geometry" />
        </mxCell>
        <mxCell id="AwWvylvPB_aR43ItV0v9-29" value="" style="endArrow=classic;html=1;rounded=0;entryX=0.5;entryY=0;entryDx=0;entryDy=0;" edge="1" parent="1" target="AwWvylvPB_aR43ItV0v9-28">
          <mxGeometry width="50" height="50" relative="1" as="geometry">
            <mxPoint x="410" y="830" as="sourcePoint" />
            <mxPoint x="450" y="580" as="targetPoint" />
          </mxGeometry>
        </mxCell>
        <mxCell id="AwWvylvPB_aR43ItV0v9-32" value="" style="endArrow=classic;html=1;rounded=0;entryX=0.5;entryY=0;entryDx=0;entryDy=0;" edge="1" parent="1">
          <mxGeometry width="50" height="50" relative="1" as="geometry">
            <mxPoint x="410" y="880" as="sourcePoint" />
            <mxPoint x="410" y="900" as="targetPoint" />
          </mxGeometry>
        </mxCell>
        <mxCell id="AwWvylvPB_aR43ItV0v9-33" value="return 0:" style="ellipse;whiteSpace=wrap;html=1;" vertex="1" parent="1">
          <mxGeometry x="365" y="900" width="90" height="50" as="geometry" />
        </mxCell>
        <mxCell id="AwWvylvPB_aR43ItV0v9-34" value="" style="endArrow=classic;html=1;rounded=0;entryX=1;entryY=0.4;entryDx=0;entryDy=0;entryPerimeter=0;exitX=0.5;exitY=1;exitDx=0;exitDy=0;" edge="1" parent="1" source="AwWvylvPB_aR43ItV0v9-24" target="AwWvylvPB_aR43ItV0v9-16">
          <mxGeometry width="50" height="50" relative="1" as="geometry">
            <mxPoint x="290" y="730" as="sourcePoint" />
            <mxPoint x="340" y="680" as="targetPoint" />
            <Array as="points">
              <mxPoint x="410" y="780" />
              <mxPoint x="120" y="780" />
              <mxPoint x="120" y="470" />
            </Array>
          </mxGeometry>
        </mxCell>
        <mxCell id="AwWvylvPB_aR43ItV0v9-35" value="}" style="text;html=1;align=center;verticalAlign=middle;resizable=0;points=[];autosize=1;strokeColor=none;fillColor=none;" vertex="1" parent="1">
          <mxGeometry x="425" y="878" width="30" height="30" as="geometry" />
        </mxCell>
        <mxCell id="AwWvylvPB_aR43ItV0v9-36" value="" style="endArrow=classic;html=1;rounded=0;entryX=0.553;entryY=0.167;entryDx=0;entryDy=0;entryPerimeter=0;exitX=1;exitY=0.5;exitDx=0;exitDy=0;" edge="1" parent="1" source="AwWvylvPB_aR43ItV0v9-14" target="AwWvylvPB_aR43ItV0v9-27">
          <mxGeometry width="50" height="50" relative="1" as="geometry">
            <mxPoint x="470" y="830" as="sourcePoint" />
            <mxPoint x="520" y="780" as="targetPoint" />
            <Array as="points">
              <mxPoint x="680" y="530" />
              <mxPoint x="680" y="780" />
              <mxPoint x="433" y="780" />
            </Array>
          </mxGeometry>
        </mxCell>
      </root>
    </mxGraphModel>
  </diagram>
</mxfile>
